<svg width="20" height="20" viewBox="0 0 20 20" fill="none" xmlns="http://www.w3.org/2000/svg">
<path d="M9.99887 2.49687V4.53105" stroke="#C7CAD4" stroke-width="1.5" stroke-linecap="round" stroke-linejoin="round"/>
<path d="M13.3355 6.66528L11.168 8.83284" stroke="#C7CAD4" stroke-width="1.5" stroke-linecap="round" stroke-linejoin="round"/>
<path d="M9.98377 8.33264C10.9046 8.33264 11.6511 9.07914 11.6511 10C11.6511 10.9209 10.9046 11.6674 9.98377 11.6674C9.06291 11.6674 8.31641 10.9209 8.31641 10C8.31641 9.07914 9.06291 8.33264 9.98377 8.33264" stroke="#C7CAD4" stroke-width="1.5" stroke-linecap="round" stroke-linejoin="round"/>
<path d="M2.93359 12.501C3.98997 15.4986 6.82246 17.5036 10.0007 17.5036C13.1789 17.5036 16.0114 15.4986 17.0678 12.501" stroke="#C7CAD4" stroke-width="1.5" stroke-linecap="round" stroke-linejoin="round"/>
<path d="M4.16345 10H2.49609C2.49609 7.31939 3.92618 4.8424 6.24766 3.5021C8.56913 2.1618 11.4293 2.1618 13.7508 3.5021C16.0723 4.8424 17.5023 7.31939 17.5023 10H15.835" stroke="#C7CAD4" stroke-width="1.5" stroke-linecap="round" stroke-linejoin="round"/>
<path d="M4.69922 4.69779L5.87471 5.87328" stroke="#C7CAD4" stroke-width="1.5" stroke-linecap="round" stroke-linejoin="round"/>
</svg>
